<svg width="52" height="52" viewBox="0 0 52 52" fill="none" xmlns="http://www.w3.org/2000/svg">
<path d="M41.2747 10.6381C39.288 8.63202 36.922 7.04138 34.3143 5.95891C31.7067 4.87643 28.9098 4.32377 26.0864 4.33312C14.2564 4.33312 4.61474 13.9748 4.61474 25.8048C4.61474 29.5965 5.61141 33.2798 7.47474 36.5298L4.44141 47.6665L15.8164 44.6765C18.9581 46.3881 22.4897 47.2981 26.0864 47.2981C37.9164 47.2981 47.5581 37.6565 47.5581 25.8265C47.5581 20.0848 45.3264 14.6898 41.2747 10.6381ZM26.0864 43.6581C22.8797 43.6581 19.7381 42.7915 16.9864 41.1665L16.3364 40.7765L9.57641 42.5531L11.3747 35.9665L10.9414 35.2948C9.15943 32.4501 8.21341 29.1615 8.21141 25.8048C8.21141 15.9681 16.2281 7.95146 26.0647 7.95146C30.8314 7.95146 35.3164 9.81479 38.6747 13.1948C40.3379 14.8498 41.6559 16.8186 42.5523 18.987C43.4486 21.1554 43.9055 23.4801 43.8964 25.8265C43.9397 35.6631 35.9231 43.6581 26.0864 43.6581ZM35.8797 30.3115C35.3381 30.0515 32.6947 28.7515 32.2181 28.5565C31.7197 28.3831 31.3731 28.2965 31.0047 28.8165C30.6364 29.3581 29.6181 30.5715 29.3147 30.9181C29.0114 31.2865 28.6864 31.3298 28.1447 31.0481C27.6031 30.7881 25.8697 30.2031 23.8331 28.3831C22.2297 26.9531 21.1681 25.1981 20.8431 24.6565C20.5397 24.1148 20.7997 23.8331 21.0814 23.5515C21.3197 23.3131 21.6231 22.9231 21.8831 22.6198C22.1431 22.3165 22.2514 22.0781 22.4247 21.7315C22.5981 21.3631 22.5114 21.0598 22.3814 20.7998C22.2514 20.5398 21.1681 17.8965 20.7347 16.8131C20.3014 15.7731 19.8464 15.9031 19.5214 15.8815H18.4814C18.1131 15.8815 17.5497 16.0115 17.0514 16.5531C16.5747 17.0948 15.1881 18.3948 15.1881 21.0381C15.1881 23.6815 17.1164 26.2381 17.3764 26.5848C17.6364 26.9531 21.1681 32.3698 26.5414 34.6881C27.8197 35.2515 28.8164 35.5765 29.5964 35.8148C30.8747 36.2265 32.0447 36.1615 32.9764 36.0315C34.0164 35.8798 36.1614 34.7315 36.5947 33.4748C37.0497 32.2181 37.0497 31.1565 36.8981 30.9181C36.7464 30.6798 36.4214 30.5715 35.8797 30.3115Z" fill="black"/>
</svg>
