<svg width="127" height="127" viewBox="0 0 127 127" fill="none" xmlns="http://www.w3.org/2000/svg">
<path d="M63.5 91.2813C62.8091 91.2812 62.1303 91.1008 61.5305 90.7579L26.7891 70.9017C26.4872 70.7274 26.1447 70.6357 25.7961 70.6359C25.4476 70.636 25.1052 70.7279 24.8034 70.9025C24.5017 71.077 24.2512 71.3279 24.0773 71.63C23.9033 71.932 23.812 72.2746 23.8125 72.6232V91.2813C23.8119 91.9896 24.0009 92.6852 24.3599 93.2958C24.7189 93.9065 25.2347 94.4099 25.8539 94.7539L61.5727 114.598C62.1623 114.925 62.8256 115.097 63.5 115.097C64.1744 115.097 64.8378 114.925 65.4273 114.598L101.146 94.7539C101.765 94.4099 102.281 93.9065 102.64 93.2958C102.999 92.6852 103.188 91.9896 103.188 91.2813V72.6232C103.188 72.2746 103.097 71.932 102.923 71.63C102.749 71.3279 102.498 71.077 102.197 70.9025C101.895 70.7279 101.552 70.636 101.204 70.6359C100.855 70.6357 100.513 70.7274 100.211 70.9017L65.4695 90.7579C64.8697 91.1008 64.1909 91.2812 63.5 91.2813Z" fill="black"/>
<path d="M123.012 47.253V47.2257C122.948 46.5966 122.734 45.9919 122.389 45.4621C122.044 44.9323 121.577 44.4926 121.028 44.1797L65.4652 12.4297C64.8654 12.0868 64.1866 11.9065 63.4957 11.9065C62.8049 11.9065 62.126 12.0868 61.5262 12.4297L5.96372 44.1797C5.35647 44.5269 4.85177 45.0284 4.50074 45.6334C4.14972 46.2385 3.96484 46.9255 3.96484 47.625C3.96484 48.3245 4.14972 49.0116 4.50074 49.6166C4.85177 50.2217 5.35647 50.7232 5.96372 51.0704L61.5262 82.8204C62.126 83.1632 62.8049 83.3436 63.4957 83.3436C64.1866 83.3436 64.8654 83.1632 65.4652 82.8204L114.35 54.8878C114.426 54.8442 114.512 54.8213 114.599 54.8214C114.686 54.8215 114.772 54.8446 114.847 54.8883C114.923 54.9321 114.985 54.995 115.029 55.0707C115.072 55.1464 115.095 55.2322 115.094 55.3194V91.1697C115.094 93.3053 116.737 95.1384 118.872 95.2451C119.409 95.2709 119.945 95.1876 120.449 95C120.952 94.8125 121.412 94.5247 121.801 94.1541C122.19 93.7835 122.5 93.3378 122.711 92.844C122.923 92.3502 123.032 91.8185 123.032 91.2813V47.625C123.032 47.5008 123.025 47.3766 123.012 47.253Z" fill="black"/>
</svg>
