<svg width="52" height="52" viewBox="0 0 52 52" fill="none" xmlns="http://www.w3.org/2000/svg">
<g clip-path="url(#clip0_576_262)">
<path d="M52 26C52 11.6407 40.3593 0 26 0C11.6407 0 0 11.6407 0 26C0 38.9772 9.50787 49.7337 21.9375 51.6841V33.5156H15.3359V26H21.9375V20.2719C21.9375 13.7556 25.8192 10.1562 31.7582 10.1562C34.6028 10.1562 37.5781 10.6641 37.5781 10.6641V17.0625H34.2997C31.0698 17.0625 30.0625 19.0667 30.0625 21.123V26H37.2734L36.1207 33.5156H30.0625V51.6841C42.4921 49.7337 52 38.9775 52 26Z" fill="#1877F2"/>
<path d="M36.1207 33.5156L37.2734 26H30.0625V21.123C30.0625 19.0665 31.0698 17.0625 34.2997 17.0625H37.5781V10.6641C37.5781 10.6641 34.6028 10.1562 31.758 10.1562C25.8192 10.1562 21.9375 13.7556 21.9375 20.2719V26H15.3359V33.5156H21.9375V51.6841C23.2814 51.8947 24.6397 52.0003 26 52C27.3603 52.0003 28.7186 51.8947 30.0625 51.6841V33.5156H36.1207Z" fill="white"/>
</g>
<defs>
<clipPath id="clip0_576_262">
<rect width="52" height="52" fill="white"/>
</clipPath>
</defs>
</svg>
