<svg width="103" height="103" viewBox="0 0 103 103" fill="none" xmlns="http://www.w3.org/2000/svg">
<path d="M90.1243 85.8334H98.7077V94.4167H4.29102V85.8334H12.8743V12.875C12.8743 11.7368 13.3265 10.6452 14.1313 9.84037C14.9362 9.03553 16.0278 8.58337 17.166 8.58337H85.8327C86.9709 8.58337 88.0625 9.03553 88.8673 9.84037C89.6722 10.6452 90.1243 11.7368 90.1243 12.875V85.8334ZM47.2077 34.3334H38.6243V42.9167H47.2077V51.5H55.791V42.9167H64.3743V34.3334H55.791V25.75H47.2077V34.3334ZM60.0827 85.8334H68.666V60.0834H34.3327V85.8334H42.916V68.6667H60.0827V85.8334Z" fill="black"/>
</svg>
