<svg width="29" height="32" viewBox="0 0 29 32" fill="none" xmlns="http://www.w3.org/2000/svg">
<path d="M10 13V10C10 9.20435 10.3161 8.44129 10.8787 7.87868C11.4413 7.31607 12.2044 7 13 7H22C22.7956 7 23.5587 7.31607 24.1213 7.87868C24.6839 8.44129 25 9.20435 25 10V13M7 13H28M1 31V4C1 3.20435 1.31607 2.44129 1.87868 1.87868C2.44129 1.31607 3.20435 1 4 1H14.5C15.2956 1 16.0587 1.31607 16.6213 1.87868C17.1839 2.44129 17.5 3.20435 17.5 4V7M11.5 19H11.515M17.5 19H17.515M23.5 19H23.515M10 25H10.015M17.5 25H17.515M25 25H25.015M8.5 31H8.515M17.5 31H17.515M26.5 31H26.515" stroke="black" stroke-width="2" stroke-linecap="round" stroke-linejoin="round"/>
</svg>
