<svg width="28" height="25" viewBox="0 0 28 25" fill="none" xmlns="http://www.w3.org/2000/svg">
<path d="M3.11111 9.375L5.44444 2.34375H22.5556L24.8889 9.375M22.5556 17.1875C21.9367 17.1875 21.3432 16.9406 20.9056 16.501C20.4681 16.0615 20.2222 15.4654 20.2222 14.8438C20.2222 14.2221 20.4681 13.626 20.9056 13.1865C21.3432 12.7469 21.9367 12.5 22.5556 12.5C23.1744 12.5 23.7679 12.7469 24.2055 13.1865C24.6431 13.626 24.8889 14.2221 24.8889 14.8438C24.8889 15.4654 24.6431 16.0615 24.2055 16.501C23.7679 16.9406 23.1744 17.1875 22.5556 17.1875ZM5.44444 17.1875C4.82561 17.1875 4.23211 16.9406 3.79453 16.501C3.35694 16.0615 3.11111 15.4654 3.11111 14.8438C3.11111 14.2221 3.35694 13.626 3.79453 13.1865C4.23211 12.7469 4.82561 12.5 5.44444 12.5C6.06328 12.5 6.65678 12.7469 7.09436 13.1865C7.53195 13.626 7.77778 14.2221 7.77778 14.8438C7.77778 15.4654 7.53195 16.0615 7.09436 16.501C6.65678 16.9406 6.06328 17.1875 5.44444 17.1875ZM24.7644 1.5625C24.4533 0.65625 23.5822 0 22.5556 0H5.44444C4.41778 0 3.54667 0.65625 3.23556 1.5625L0 10.9375V23.4375C0 23.8519 0.163888 24.2493 0.455612 24.5424C0.747335 24.8354 1.143 25 1.55556 25H3.11111C3.52367 25 3.91933 24.8354 4.21105 24.5424C4.50278 24.2493 4.66667 23.8519 4.66667 23.4375V21.875H23.3333V23.4375C23.3333 23.8519 23.4972 24.2493 23.7889 24.5424C24.0807 24.8354 24.4763 25 24.8889 25H26.4444C26.857 25 27.2527 24.8354 27.5444 24.5424C27.8361 24.2493 28 23.8519 28 23.4375V10.9375L24.7644 1.5625Z" fill="black"/>
</svg>
