<svg width="109" height="102" viewBox="0 0 109 102" fill="none" xmlns="http://www.w3.org/2000/svg">
<path d="M0 0H22.0335L24.5541 9.25H108.165L91.2096 60.125H35.9825L33.67 69.375H101.75V78.625H21.83L27.5927 55.5509L14.9665 9.25H0V0ZM18.5 92.5C18.5 90.0467 19.4745 87.694 21.2093 85.9593C22.944 84.2245 25.2967 83.25 27.75 83.25C30.2032 83.25 32.556 84.2245 34.2907 85.9593C36.0254 87.694 37 90.0467 37 92.5C37 94.9532 36.0254 97.306 34.2907 99.0407C32.556 100.775 30.2032 101.75 27.75 101.75C25.2967 101.75 22.944 100.775 21.2093 99.0407C19.4745 97.306 18.5 94.9532 18.5 92.5ZM83.25 92.5C83.25 90.0467 84.2245 87.694 85.9593 85.9593C87.694 84.2245 90.0467 83.25 92.5 83.25C94.9532 83.25 97.306 84.2245 99.0407 85.9593C100.775 87.694 101.75 90.0467 101.75 92.5C101.75 94.9532 100.775 97.306 99.0407 99.0407C97.306 100.775 94.9532 101.75 92.5 101.75C90.0467 101.75 87.694 100.775 85.9593 99.0407C84.2245 97.306 83.25 94.9532 83.25 92.5Z" fill="black"/>
</svg>
