<svg width="36" height="25" viewBox="0 0 36 25" fill="none" xmlns="http://www.w3.org/2000/svg">
<path d="M0 25V14.2857C0 13.4821 0.165 12.753 0.495 12.0982C0.825 11.4435 1.26 10.8631 1.8 10.3571V5.35714C1.8 3.86905 2.325 2.60417 3.375 1.5625C4.425 0.520833 5.7 0 7.2 0H14.4C15.09 0 15.735 0.126785 16.335 0.380357C16.935 0.633928 17.49 0.983334 18 1.42857C18.51 0.982143 19.065 0.632738 19.665 0.380357C20.265 0.127976 20.91 0.00119048 21.6 0H28.8C30.3 0 31.575 0.520833 32.625 1.5625C33.675 2.60417 34.2 3.86905 34.2 5.35714V10.3571C34.74 10.8631 35.175 11.4435 35.505 12.0982C35.835 12.753 36 13.4821 36 14.2857V25H32.4V21.4286H3.6V25H0ZM19.8 8.92857H30.6V5.35714C30.6 4.85119 30.4272 4.42738 30.0816 4.08571C29.736 3.74405 29.3088 3.57262 28.8 3.57143H21.6C21.09 3.57143 20.6628 3.74286 20.3184 4.08571C19.974 4.42857 19.8012 4.85238 19.8 5.35714V8.92857ZM5.4 8.92857H16.2V5.35714C16.2 4.85119 16.0272 4.42738 15.6816 4.08571C15.336 3.74405 14.9088 3.57262 14.4 3.57143H7.2C6.69 3.57143 6.2628 3.74286 5.9184 4.08571C5.574 4.42857 5.4012 4.85238 5.4 5.35714V8.92857Z" fill="black"/>
</svg>
